# xmcd CD database file
#
# Track frame offsets:
#	150
#	12695
#	25372
#	36665
#	49777
#	63377
#	77082
#	92110
#	107505
#	121570
#	134250
#	148575
#	161030
#	172942
#	186775
#	197697
#	211517
#	224350
#	236080
#	248920
#	261075
#	275037
#
# Disc length: 3849 seconds
#
# Revision: 2
# Processed by: cddbd v1.5.1PL0 Copyright (c) Steve Scherf et al.
# Submitted via: CDex 1.51
#
DISCID=400f0716
DTITLE=筒美京平 - HITSTORY - ULTIMATE COLLECTION 1967-1997 VOL.1(DISC3)
DYEAR=1900
DGENRE=Pop
TTITLE0=17才 - 南沙織
TTITLE1=青いリンゴ - 野口五郎
TTITLE2=恋する季節 - 西城秀樹
TTITLE3=男の子 女の子 - 郷ひろみ
TTITLE4=約束 - フォーリーブス
TTITLE5=純潔 - 南沙織
TTITLE6=芽ばえ - 浅丘めぐみ
TTITLE7=初恋のメロディー - 小林麻美
TTITLE8=私は忘れない - 岡崎友紀
TTITLE9=哀愁のページ - 南沙織
TTITLE10=小さな体験 - 郷ひろみ
TTITLE11=女の子なんだもん - 浅丘めぐみ
TTITLE12=オレンジの雨 - 野口五郎
TTITLE13=赤い風船 - 浅田美代子
TTITLE14=娘ごころ - 水沢アキ
TTITLE15=わたしの彼は左きき - 浅丘めぐみ
TTITLE16=色づく街 - 南沙織
TTITLE17=処女航海 - 優雅
TTITLE18=恋のインディアン人形 - リンリン・ランラン
TTITLE19=しあわせの一番星 - 浅田美代子
TTITLE20=ひとかけらの純情 - 南沙織
TTITLE21=花とみつばち - 郷ひろみ
EXTD=SMEJ  SRCL 4073
EXTT0=
EXTT1=
EXTT2=
EXTT3=
EXTT4=
EXTT5=
EXTT6=
EXTT7=
EXTT8=
EXTT9=
EXTT10=
EXTT11=
EXTT12=
EXTT13=
EXTT14=
EXTT15=
EXTT16=
EXTT17=
EXTT18=
EXTT19=
EXTT20=
EXTT21=
PLAYORDER=
